<svg version="1.1" xmlns="http://www.w3.org/2000/svg" xmlns:xlink="http://www.w3.org/1999/xlink" width="48.000000" height="48.000000" viewBox="0,0,256,256"><defs><clipPath id="clip-1"><rect x="0" y="-0.00012" width="48" height="48" id="clip9_18" fill="none" fill-rule="nonzero"></rect></clipPath></defs><g fill="none" fill-rule="none" stroke="none" stroke-width="1" stroke-linecap="butt" stroke-linejoin="miter" stroke-miterlimit="10" stroke-dasharray="" stroke-dashoffset="0" font-family="none" font-weight="none" font-size="none" text-anchor="none" style="mix-blend-mode: normal"><g transform="translate(0,0.00065) scale(5.33333,5.33333)"><g clip-path="url(#clip-1)"><path d="M17,41.49c0,-1.93 1.56,-3.5 3.5,-3.5c1.93,0 3.5,1.57 3.5,3.5c0,1.94 -1.57,3.5 -3.5,3.5c-1.94,0 -3.5,-1.56 -3.5,-3.5z" id="circle" fill="#339af0" fill-rule="evenodd"></path><path d="M34,41.49c0,-1.93 1.56,-3.5 3.5,-3.5c1.93,0 3.5,1.57 3.5,3.5c0,1.94 -1.57,3.5 -3.5,3.5c-1.94,0 -3.5,-1.56 -3.5,-3.5z" id="circle" fill="#339af0" fill-rule="evenodd"></path><path d="M4.16,7.24c-0.7,-0.46 -0.88,-1.38 -0.41,-2.08c0.46,-0.7 1.38,-0.88 2.08,-0.41l9,6c0.33,0.22 0.54,0.52 0.63,0.91l4.73,20.83h17.68l4.12,-14h-16.99c-0.84,0 -1.5,-0.66 -1.5,-1.5c0,-0.84 0.66,-1.5 1.5,-1.5h19c0.14,0 0.28,0.03 0.42,0.07c0.48,0.14 0.8,0.36 0.97,0.67c0.17,0.31 0.19,0.71 0.04,1.19l-5,17c-0.1,0.36 -0.27,0.63 -0.51,0.81c-0.24,0.18 -0.55,0.26 -0.92,0.26h-20c-0.8,0 -1.29,-0.38 -1.47,-1.16l-4.87,-21.42z" id="path (Граница)" fill="#339af0" fill-rule="evenodd"></path><path d="M25,24.49h16c0.84,0 1.5,0.66 1.5,1.5c0,0.84 -0.66,1.5 -1.5,1.5h-16c-0.84,0 -1.5,-0.66 -1.5,-1.5c0,-0.84 0.66,-1.5 1.5,-1.5z" id="path (Граница)" fill="#339af0" fill-rule="evenodd"></path></g></g></g></svg>