<svg width="4352" height="4262" viewBox="0 0 4352 4262" fill="none" xmlns="http://www.w3.org/2000/svg">
<path fill-rule="evenodd" clip-rule="evenodd" d="M3266.21 1856.45L3116.14 1724.06L3122.02 1638.74L3172.05 1674.04L3145.56 1526.94L3066.11 1447.5L3145.56 1335.71L3036.69 1150.35L3139.68 1026.79L3104.37 885.567L3336.83 794.362L3422.16 703.158L3392.74 573.706L3136.74 479.559L3042.57 161.814L2745.38 0L2501.15 44.1312L2274.57 23.5367L2159.82 91.2045L1947.95 64.7258L1812.6 144.162L1739.03 241.251L1527.17 305.977L1438.9 473.675L1259.4 556.053L818.023 185.351C724.843 218.695 600.102 255.964 497.287 311.861C361.945 385.442 314.851 447.196 235.402 541.343L105.931 723.752L23.5402 867.914L411.954 1226.85L432.552 1356.3L494.345 1376.89L559.08 1332.76L1171.13 1894.7L238.345 2444.87L188.322 2491.94L0 2771.44C0 2771.44 100.907 2988.95 182.437 3118.61C260.729 3243.11 310.119 3310.17 406.069 3421.64C484.522 3512.79 531.775 3561.52 620.874 3642.3C736.829 3747.42 806.948 3801.95 938.667 3886.49C1041.22 3952.31 1109.15 3990.08 1206.44 4035.11C1206.44 4035.11 1207.7 3574.64 1144.64 3289.25C1102.78 3099.78 994.575 2815.57 994.575 2815.57C994.575 2815.57 1079.91 3106.35 1103.45 3298.07C1120.97 3440.79 1121.1 3665.83 1121.1 3665.83C1121.1 3665.83 1095.11 3440.23 1065.2 3298.07C1033.05 3145.33 959.264 2912.66 959.264 2912.66L865.103 2830.28L738.575 2644.93C738.575 2644.93 790.016 2735.43 812.138 2797.92C833.433 2858.08 850.391 2956.79 850.391 2956.79C850.391 2956.79 804.622 2847.56 765.057 2783.21C725.097 2718.22 698.743 2683.67 647.356 2627.28C572.644 2545.28 429.609 2444.87 429.609 2444.87C429.609 2444.87 504.935 2461.3 550.253 2480.17C601.568 2501.54 673.839 2550.78 673.839 2550.78C673.839 2550.78 565.946 2454.68 509.057 2403.68C509.057 2403.68 582.2 2431.14 626.759 2453.7C674.582 2477.91 744.46 2524.31 744.46 2524.31L576.736 2365.43C576.736 2365.43 642.277 2392.06 682.667 2412.51C727.684 2435.29 794.483 2477.23 794.483 2477.23L647.356 2336.01C647.356 2336.01 709.612 2360.26 747.402 2380.14C789.441 2402.26 850.391 2444.87 850.391 2444.87L703.264 2294.82C703.264 2294.82 775.005 2325.54 818.023 2350.72C861.485 2376.17 923.954 2424.28 923.954 2424.28L768 2256.58C768 2256.58 837.262 2291.42 879.816 2318.36C921.373 2344.67 982.805 2391.91 982.805 2391.91L841.563 2233.04C841.563 2233.04 896.492 2259.76 929.839 2280.11C965.756 2302.04 1018.11 2341.9 1018.11 2341.9L894.529 2188.91C894.529 2188.91 951.451 2219.05 985.747 2241.87C1020.57 2265.03 1071.08 2306.59 1071.08 2306.59L965.149 2153.6C965.149 2153.6 1025.94 2188.9 1062.25 2215.39C1097.2 2240.88 1147.59 2286 1147.59 2286L1029.89 2121.24C1103.45 2162.43 1215.26 2271.29 1215.26 2271.29C1215.26 2271.29 1139.74 2140.85 1097.56 2074.17C1143.66 2116.34 1189.22 2152.79 1235.86 2215.39C1278.23 2272.25 1302.56 2320.32 1327.08 2371.32C1384.99 2495.89 1494.7 2732.85 1517.2 2784.8C1505.93 2753.31 1474.1 2657.18 1456.55 2603.74C1434.97 2538.04 1350.62 2321.3 1350.62 2321.3C1350.62 2321.3 1471.26 2552.36 1547.77 2700.83C1629.92 2860.25 1685.72 2945.08 1756.69 3109.78C1812.94 3240.32 1847.69 3313.43 1883.22 3451.06C1906.6 3541.61 1912.37 3593.41 1927.36 3686.43C1962.25 3903.05 1945.01 4248.19 1945.01 4248.19C2003.29 4254.75 2058.87 4257.92 2133.33 4260.13C2267.84 4264.14 2344.16 4262.75 2477.61 4245.42C2511.28 4241.05 2541.02 4236.56 2568.83 4231.67L2286.34 3630.53C2311.85 3700.16 2363.44 3841.18 2365.79 3848.24C2368.15 3855.3 2455.05 4082.04 2498.21 4194.53C2498.21 4194.53 2473.12 4175.23 2454.07 4157.16C2419 4123.9 2383.45 4048.3 2383.45 4048.3C2383.45 4048.3 2224.28 3733.63 2139.22 3524.61C2087 3396.32 2015.63 3192.16 2015.63 3192.16L2248.09 3548.15L2145.1 3239.23L2406.99 3668.78C2406.99 3668.78 2357.84 3551.37 2330.48 3474.6C2305.35 3404.09 2271.63 3292.19 2271.63 3292.19L2530.57 3704.08L2415.82 3377.51L2642.39 3721.73L2557.06 3474.6C2662.78 3640.05 2730.67 3701.14 2804.23 3865.9C2877.79 4030.65 2907.22 4145.08 2907.22 4145.08C2927.52 4138.9 2952.78 4128.32 2971.95 4121.86L2918.99 2990.61C2918.99 2990.61 2940.7 3071.77 2951.36 3124.49C2961.05 3172.44 2971.95 3248.06 2971.95 3248.06V3036.23C2971.95 3036.23 3037.72 3162.62 3069.06 3248.06C3114.26 3371.28 3123.05 3445.87 3148.51 3574.63C3182.9 3748.58 3210.3 4024.47 3210.3 4024.47C3265.35 3997.42 3310.44 3971.61 3375.08 3933.56C3488.51 3866.79 3552.54 3828.36 3654.62 3745.27C3734.06 3680.61 3773.97 3638.73 3845.89 3565.8C3931.58 3478.9 3979.64 3429.53 4054.8 3333.38C4110.17 3262.55 4144.06 3220.6 4187.22 3145.09C4230.38 3069.57 4271.74 3008.16 4316.69 2915.6C4331.06 2886.01 4340.23 2863.63 4352 2839.11L4181.33 2694.95L4169.56 2459.58L4069.52 2371.32L4004.78 2262.46L3581.06 1988.85L3425.1 2082.99L3272.09 1971.19L3266.21 1856.45ZM2836.6 3633.47L2768.92 3574.63C2768.92 3574.63 2753.29 3210 2730.67 2977.39C2715.66 2823.06 2683.59 2583.15 2683.59 2583.15L2745.38 2709.66L2718.9 2550.78C2762.05 2616.49 2804.46 2666.56 2854.25 2747.9C2898.79 2820.66 2926.84 2883.24 2963.13 2942.08L2863.08 2912.66L2836.6 3633.47ZM2633.56 3192.16L2509.98 2747.9L2542.34 2630.22L2633.56 2709.66V3192.16ZM2309.89 2839.11L2180.41 2677.29L2236.32 2630.22L2309.89 2747.9V2839.11ZM1474.21 1879.99L2657.1 3377.51L1918.53 3012.69C1918.53 3012.69 1673.87 2603.76 1533.06 2333.07C1433.93 2142.51 1291.77 1838.8 1291.77 1838.8C1291.77 1838.8 1480.42 2171.37 1603.68 2383.09C1728.6 2597.66 1927.36 2930.31 1927.36 2930.31C1927.36 2930.31 1930.3 2936.2 1942.07 2930.31C1953.84 2924.43 1947.95 2915.6 1947.95 2915.6C1947.95 2915.6 1721.78 2548.62 1588.97 2306.59C1486.86 2120.52 1338.85 1824.09 1338.85 1824.09C1338.85 1824.09 1503.07 2111.85 1615.45 2291.88C1761.08 2525.18 2006.8 2877.36 2006.8 2877.36C2006.8 2877.36 1722.36 2428.2 1638.99 2271.29C1555.62 2114.38 1388.87 1798.79 1388.87 1791.73C1388.87 1782.9 1668.41 2253.63 1668.41 2253.63C1668.41 2253.63 1938.15 2636.11 2071.54 2824.4C2071.54 2824.4 1870.93 2515.17 1744.92 2315.42C1638.09 2146.07 1474.21 1879.99 1474.21 1879.99ZM1512.46 1812.32C1512.46 1800.55 1533.06 1747.6 1533.06 1747.6L2259.86 2350.72L2068.6 2524.31C2068.6 2524.31 1512.46 1824.09 1512.46 1812.32ZM1789.06 1847.63C1715.81 1791.97 1617.8 1694.05 1615.45 1691.7L1739.03 1777.02L1606.62 1644.62L1718.44 1715.23C1690.97 1668.16 1633.1 1571.07 1633.1 1571.07C1633.1 1571.07 1741.56 1672.39 1809.66 1738.77C1875.98 1803.43 1977.38 1906.47 1977.38 1906.47C1977.38 1906.47 1925.39 1876.07 1897.93 1859.4L2042.11 2003.56C2044.47 2005.91 1880.71 1917.26 1789.06 1847.63ZM2395.22 2627.28C2345.82 2624.63 2306.64 2560.3 2327.54 2515.48C2341.7 2485.12 2367.66 2469.39 2401.1 2471.35C2445.18 2473.93 2478.53 2516 2471.72 2559.61C2465.56 2599.15 2435.18 2629.42 2395.22 2627.28ZM2604.14 2483.12L2501.15 2388.97L2577.66 2309.53L2604.14 2483.12ZM3607.54 3386.34C3567.56 3348.17 3501.61 3289.25 3501.61 3289.25C3501.61 3289.25 3579.71 3333.89 3619.31 3374.57C3650.25 3406.34 3686.99 3465.77 3686.99 3465.77C3686.99 3465.77 3639.87 3417.2 3607.54 3386.34ZM3466.3 3162.74C3466.3 3162.74 3637.95 3316.71 3722.3 3392.22L3748.78 3356.92L3489.84 3145.09L3225.01 2956.79C3304.46 3024.46 3466.3 3162.74 3466.3 3162.74ZM3436.87 3036.23L3769.38 3324.55L3795.86 3292.19C3795.86 3292.19 3584.35 3100.76 3445.7 2995.04C3310.12 2891.65 3095.54 2756.73 3095.54 2756.73L3436.87 3036.23ZM3313.29 2836.17L3010.21 2550.78C3010.21 2550.78 3204.41 2681.22 3260.32 2736.14C3316.23 2791.05 3425.1 2897.95 3425.1 2897.95C3425.1 2897.95 3351.54 2783.21 3316.23 2744.96C3280.92 2706.72 2895.45 2347.78 2895.45 2347.78C2895.45 2347.78 3041.52 2444.29 3127.91 2515.48C3220.74 2591.98 3357.43 2727.31 3357.43 2727.31C3357.43 2727.31 3350.56 2703.36 3345.66 2689.06C3340.99 2675.44 3328 2656.7 3328 2656.7L3189.7 2515.48C3189.7 2515.48 3063.82 2394.54 2974.9 2327.19C2909.6 2277.73 2857.2 2247.75 2801.29 2209.5L2886.62 2203.62L3033.75 2333.07L3227.95 2500.77C3224.03 2486.06 3219.52 2473.27 3210.3 2456.64C3186.55 2413.79 3127.91 2359.55 3127.91 2359.55L2986.67 2218.33L3024.92 2203.62C3064.15 2235 3103.7 2257.56 3142.62 2303.65C3169.35 2335.3 3181.85 2364.45 3201.47 2391.91C3218.61 2415.9 3229.5 2422.12 3248.55 2431.64C3251.31 2433.02 3254.24 2434.46 3257.38 2436.04C3298.77 2456.85 3335.38 2474.61 3375.08 2450.75C3386.94 2443.63 3401.56 2427.22 3401.56 2427.22L3422.16 2465.46C3422.16 2465.46 3420.71 2509.79 3433.93 2533.13C3443.17 2549.45 3452.83 2559.04 3466.3 2567.53C3471.54 2570.83 3477.36 2573.97 3483.95 2577.26C3507.49 2589.03 3575.17 2633.16 3575.17 2633.16L3600.18 2608.16L3625.2 2583.15C3641.87 2596.88 3675.22 2623.75 3675.22 2621.39C3675.22 2619.04 3655.6 2583.15 3645.79 2565.5L3666.39 2556.67L3810.57 2694.95L4122.48 2974.44L4087.17 3003.87L3713.47 2674.35C3713.47 2674.35 3758.13 2740.4 3789.98 2780.27C3878.23 2890.76 4051.86 3030.34 4051.86 3030.34L4013.61 3068.59L3884.14 3203.93L3713.47 3066.25L3625.2 2995.04C3625.2 2995.04 3613.7 2988.14 3601.66 2982.17C3590.1 2976.44 3578.05 2971.56 3575.17 2974.44C3569.29 2980.33 3604.6 3030.34 3604.6 3030.34C3604.6 3030.34 3671.29 3115.01 3725.24 3156.85C3769.62 3191.27 3848.83 3230.41 3848.83 3230.41L3819.4 3259.83C3742.59 3196.66 3608.93 3086.65 3540.94 3030.34C3516.03 3009.72 3499.93 2996.3 3498.67 2995.04C3497.67 2994.05 3491.51 2988.67 3481.85 2980.33C3445.69 2949.13 3360.5 2876.4 3313.29 2836.17ZM4157.79 2950.91L3904.74 2730.25H3969.47L4187.22 2921.49L4157.79 2950.91ZM4013.61 2692L3990.07 2718.48L4207.82 2912.66L4243.13 2892.07L4013.61 2692ZM3913.56 2536.07L3845.89 2636.11L3942.99 2665.53L4001.84 2586.09L3913.56 2536.07ZM3993.01 2377.2L3922.39 2509.6L4022.44 2568.44L4107.77 2465.46L3993.01 2377.2ZM3692.87 2547.84L3713.47 2527.25L3795.86 2594.92L3763.49 2633.16L3692.87 2547.84ZM3751.72 2527.25C3751.72 2527.25 3740.7 2513.25 3745.84 2506.65C3751.66 2499.18 3769.38 2512.54 3769.38 2512.54L3822.34 2562.55L3807.63 2577.26L3751.72 2527.25ZM3548.69 2536.07L3486.9 2486.06L3592.83 2386.03L3686.99 2447.81L3548.69 2536.07ZM3707.59 2430.16L3607.54 2350.72L3781.15 2183.02L3922.39 2283.06C3922.39 2283.06 3875.71 2296.09 3842.94 2315.42C3787.44 2348.16 3707.59 2430.16 3707.59 2430.16ZM3428.05 2450.75C3428.05 2450.75 3413.33 2431.14 3407.45 2421.33L3433.93 2397.8L3463.36 2421.33L3428.05 2450.75ZM3472.18 2409.56L3454.53 2377.2L3472.18 2356.61L3504.55 2383.09L3472.18 2409.56ZM3328 2388.97L3257.38 2338.95L3360.37 2212.45L3454.53 2250.69L3328 2388.97ZM3404.51 2144.78C3392.74 2165.37 3380.97 2191.85 3380.97 2191.85L3483.95 2233.04L3675.22 2118.3L3575.17 2047.69C3575.17 2047.69 3416.28 2124.18 3404.51 2144.78ZM3298.57 2183.02L3216.18 2103.59L3239.72 2082.99L3325.06 2156.55L3298.57 2183.02ZM3157.33 2150.66L3189.7 2121.24L3289.75 2200.68L3248.55 2244.81L3157.33 2150.66ZM3092.6 2165.37L3057.29 2191.85L3198.53 2318.36L3225.01 2274.23L3092.6 2165.37ZM2548.23 1797.61C2477.61 1835.27 2452.11 1897.64 2448.18 1924.12C2448.18 1924.12 2484.81 1887.8 2512.92 1871.16C2542.67 1853.56 2595.31 1838.8 2595.31 1838.8L2524.69 1947.66C2524.69 1947.66 2566.45 1918.52 2595.31 1903.53C2624.1 1888.57 2671.82 1871.16 2671.82 1871.16L2607.08 1974.14C2607.08 1974.14 2648.42 1941 2677.7 1924.12C2706.21 1907.68 2754.21 1888.82 2754.21 1888.82L2692.41 2000.62C2692.41 2000.62 2734.37 1970.18 2763.03 1953.54C2791.92 1936.77 2839.54 1915.3 2839.54 1915.3L2771.86 2030.04C2771.86 2030.04 2806.78 2000.09 2830.71 1982.96C2855.08 1965.52 2895.45 1941.77 2895.45 1941.77L2854.25 2041.8C2854.25 2041.8 2874.43 2017.14 2889.56 2003.56C2905.47 1989.28 2933.7 1971.19 2933.7 1971.19L2936.64 2047.69C2936.64 2047.69 2951.43 2025.04 2963.13 2012.38C2973.62 2001.03 2992.55 1985.91 2992.55 1985.91L2998.44 2059.46C2998.44 2059.46 3010.3 2037.51 3019.03 2024.15C3027.59 2011.07 3042.57 1991.79 3042.57 1991.79L3069.06 2071.23C3069.06 2071.23 3086.02 2040.16 3089.66 2018.27C3093.42 1995.57 3086.71 1959.43 3086.71 1959.43L3142.62 2027.09C3142.62 2027.09 3147.74 1992.95 3145.56 1971.19C3143.31 1948.73 3130.85 1915.3 3130.85 1915.3L3189.7 1971.19L3174.99 1838.8L3060.23 1744.65L3069.06 1779.96C3069.06 1779.96 3050.87 1755.19 3036.69 1741.71C3023.03 1728.73 2998.44 1712.29 2998.44 1712.29L3016.09 1771.13C3016.09 1771.13 2999.48 1750.07 2986.67 1738.77C2973.04 1726.75 2948.41 1712.29 2948.41 1712.29L2954.3 1779.96C2954.3 1779.96 2941.96 1753.53 2930.76 1738.77C2918.97 1723.23 2895.45 1703.47 2895.45 1703.47L2883.68 1779.96C2883.68 1779.96 2874.12 1756.03 2866.02 1741.71C2857.08 1725.9 2839.54 1703.47 2839.54 1703.47C2839.54 1703.47 2817.24 1720.52 2804.23 1732.89C2790.68 1745.78 2771.86 1768.19 2771.86 1768.19L2768.92 1718.18C2768.92 1718.18 2739.43 1729.11 2721.84 1738.77C2702.28 1749.51 2678.68 1764.27 2674.76 1771.13L2686.53 1738.77C2669.85 1742.69 2618.85 1759.95 2548.23 1797.61ZM2948.41 1603.43C2939.59 1603.43 2889.56 1621.09 2892.51 1626.97C2895.45 1632.86 2925.35 1634.65 2948.41 1635.8C2971.37 1636.94 3010.21 1638.74 3010.21 1632.86C3010.21 1626.97 2957.24 1603.43 2948.41 1603.43ZM2568.83 1585.78L2565.89 1679.93L2474.67 1744.65L2504.09 1659.33C2504.09 1659.33 2472.36 1685.16 2451.13 1700.52C2427.63 1717.52 2389.33 1741.71 2389.33 1741.71C2389.33 1741.71 2395.17 1719.68 2401.1 1706.41C2411.9 1682.26 2439.36 1650.51 2439.36 1650.51C2439.36 1650.51 2387.19 1676.14 2356.97 1697.58C2323.11 1721.6 2277.52 1768.19 2277.52 1768.19C2277.52 1768.19 2303.4 1714.69 2327.54 1685.81C2349.45 1659.6 2392.28 1626.97 2392.28 1626.97C2392.28 1626.97 2336.84 1636.56 2304 1650.51C2274.61 1662.99 2233.38 1691.7 2233.38 1691.7C2233.38 1691.7 2253.7 1651.91 2271.63 1629.91C2289.61 1607.87 2324.6 1579.9 2324.6 1579.9C2324.6 1579.9 2259.17 1597.42 2221.61 1618.14C2184.99 1638.35 2136.28 1682.87 2136.28 1682.87C2136.28 1682.87 2164.39 1634.53 2189.24 1609.32C2217 1581.16 2271.63 1550.48 2271.63 1550.48C2271.63 1550.48 2194.33 1564.97 2150.99 1588.72C2112.27 1609.94 2062.71 1659.33 2062.71 1659.33C2062.71 1659.33 2112.79 1581.19 2159.82 1547.53C2215.38 1507.77 2324.6 1488.69 2324.6 1488.69C2324.6 1488.69 2251.85 1476.08 2206.9 1485.75C2159.17 1496.02 2095.08 1541.65 2095.08 1541.65C2095.08 1541.65 2154.19 1479.99 2201.01 1453.39C2250.61 1425.2 2339.31 1406.32 2339.31 1406.32C2339.31 1406.32 2267.62 1402.27 2224.55 1415.14C2184.66 1427.07 2130.39 1465.16 2130.39 1465.16C2130.39 1465.16 2179.5 1418.18 2215.72 1394.55C2252.31 1370.68 2315.77 1344.53 2315.77 1344.53C2315.77 1344.53 2274 1351.47 2248.09 1359.24C2220.91 1367.4 2180.41 1385.72 2180.41 1385.72C2180.41 1385.72 2205.84 1360.51 2224.55 1347.47C2246.9 1331.9 2286.34 1315.11 2286.34 1315.11C2286.34 1315.11 2204.77 1322.37 2156.87 1341.59C2110.41 1360.23 2048 1409.26 2048 1409.26C2048 1409.26 2094.53 1353.25 2130.39 1323.94C2171.13 1290.64 2245.15 1253.33 2245.15 1253.33C2245.15 1253.33 2159.3 1267.78 2109.79 1291.57C2065.84 1312.7 2006.8 1362.18 2006.8 1362.18C2006.8 1362.18 2030.89 1311.44 2048 1279.81C2066.38 1245.83 2098.02 1194.49 2098.02 1194.49C2098.02 1194.49 2048.12 1226.59 2018.57 1250.38C1989.44 1273.85 1947.95 1315.11 1947.95 1315.11C1947.95 1315.11 1975.02 1260.85 1997.98 1229.79C2021.18 1198.4 2065.66 1156.24 2065.66 1156.24C2065.66 1156.24 2006.23 1181.32 1971.49 1203.31C1938.29 1224.34 1892.05 1265.1 1892.05 1265.1C1892.05 1265.1 1907.77 1222.78 1921.47 1197.43C1934.5 1173.31 1943.08 1160.36 1959.72 1138.59C2003.25 1081.66 2098.02 1017.96 2098.02 1017.96C2098.02 1017.96 2043.83 1032.87 2009.75 1044.44C1976 1055.89 1924.41 1076.8 1924.41 1076.8C1924.41 1076.8 1930.52 1065.19 1936.18 1059.15C1942.94 1051.94 1956.78 1044.44 1956.78 1044.44C1956.78 1044.44 1917.12 1046.39 1892.05 1050.32C1852.12 1056.58 1832.14 1072.11 1792 1076.8C1740.53 1082.82 1659.59 1067.98 1659.59 1067.98C1659.59 1067.98 1644.09 1115.77 1638.99 1147.41C1631.67 1192.8 1628.52 1219.63 1636.05 1265.1C1644.53 1316.32 1671.36 1371.01 1686.07 1385.72C1700.78 1400.43 1774.34 1435.74 1786.11 1432.79C1797.89 1429.85 1830.25 1400.43 1830.25 1400.43C1830.25 1400.43 1783.9 1406.78 1756.69 1397.49C1730.14 1388.43 1712.55 1368.07 1700.78 1353.36C1689.01 1338.65 1659.59 1268.04 1656.64 1241.56C1653.7 1215.08 1686.07 1135.64 1686.07 1135.64L1753.75 1200.37L1709.61 1288.63L1768.46 1359.24L1862.62 1356.3C1862.62 1356.3 1884.51 1391.1 1894.99 1415.14C1905.15 1438.46 1915.59 1476.93 1915.59 1476.93L1821.43 1541.65C1821.43 1541.65 1765.6 1499.09 1733.15 1468.1C1683.04 1420.23 1645.91 1396.36 1618.39 1332.76C1587.28 1260.86 1584.96 1209.53 1600.74 1132.7C1608.34 1095.68 1612.51 1050.32 1633.1 1041.5C1653.7 1032.67 1759.63 1023.84 1759.63 1023.84L1859.68 967.945L1683.13 985.597L1786.11 926.756L1668.41 950.292L1959.72 803.188L2215.72 711.984L2598.25 729.636L3039.63 770.825L3074.94 973.829L2945.47 1059.15L3092.6 1323.94L3066.11 1359.24L2921.93 1335.71L2833.66 1373.95L2807.17 1329.82L2821.89 1306.28L2886.62 1256.27L2857.2 1265.1L2780.69 1323.94L2692.41 1441.62L2607.08 1524L2695.36 1482.81L2780.69 1447.5L2748.32 1435.74L2789.52 1373.95L2833.66 1426.91L2954.3 1450.45L3030.8 1532.82L2986.67 1494.58L2989.61 1524L2863.08 1585.78L2883.68 1547.53L2798.34 1591.67L2842.48 1529.88L2710.07 1591.67L2789.52 1506.35L2713.01 1532.82L2754.21 1494.58L2568.83 1585.78ZM2607.08 538.401C2460.81 560.893 2245.15 617.837 2245.15 617.837C2315.77 617.837 2384.62 618.243 2471.72 611.953C2587.98 603.558 2647.74 584.975 2763.03 567.822C2914.17 545.336 3024.92 535.459 3151.45 520.748C3151.45 520.748 3104.37 506.038 3039.63 500.154C2974.9 494.27 2778.77 512.001 2607.08 538.401ZM829.793 1165.06C711.575 1067.46 526.713 917.93 526.713 917.93C526.713 917.93 680.566 1025.38 776.828 1097.4C831.299 1138.15 864.322 1158.73 915.126 1203.31C979.396 1259.7 1062.25 1362.18 1062.25 1362.18C1062.25 1362.18 921.129 1240.47 829.793 1165.06ZM1126.99 1353.36C1177.04 1395.96 1256.46 1453.39 1256.46 1453.39C1256.46 1453.39 1183.62 1382.77 1138.76 1335.71C1063.05 1256.3 1027.23 1205.19 947.494 1129.76C873.428 1059.7 828.621 1023.69 747.402 962.061C686.962 916.195 650.386 894.166 588.506 850.262C468.341 765.006 282.483 629.605 282.483 629.605L635.586 912.045C635.586 912.045 830.859 1060.4 944.552 1168.01C1017.14 1236.71 1050.86 1288.57 1126.99 1353.36ZM1150.53 1262.15C1199.51 1302.49 1282.94 1356.3 1282.94 1356.3C1282.94 1356.3 1199.7 1284.83 1150.53 1238.62C1071.77 1164.59 1032.94 1121.27 956.322 1047.38C875.582 969.512 837.045 917.695 747.402 850.262C680.143 799.666 635.646 781.216 564.966 735.52C469.687 673.923 323.678 573.706 323.678 573.706C323.678 573.706 447.181 691.983 535.54 756.115C599.517 802.55 641.665 819.325 706.207 864.972C844.501 962.779 908.704 1035.1 1032.83 1150.35C1079.28 1193.49 1101.59 1221.85 1150.53 1262.15ZM1147.59 1182.72C1206.18 1224.78 1306.48 1276.86 1306.48 1276.86C1306.48 1276.86 1212.89 1202.18 1156.41 1150.35C1064.19 1065.72 1027.53 1003 935.724 917.93C839.893 829.129 780.342 785.008 675.98 707.686L673.839 706.1C561.424 622.81 376.644 506.038 376.644 506.038C376.644 506.038 547.439 652.93 659.126 744.347C754.667 822.547 814.061 859.397 906.299 941.466C1005.85 1030.04 1039.34 1105 1147.59 1182.72ZM1168.18 1079.74L753.287 714.926L647.356 624.702L435.494 444.254L503.172 470.733L647.356 564.88H697.379L503.172 388.355L553.195 358.934L823.908 576.648L576.736 344.224L659.126 311.861C659.126 311.861 700.322 335.397 776.828 400.123C853.333 464.849 1235.86 785.536 1235.86 785.536L1236.4 822.312L1236.94 859.088L1237.33 885.567L1238.24 947.35L1238.8 985.597L1382.99 1262.15L1171.43 1082.5L1168.18 1079.74ZM776.828 388.355L676.782 297.15L706.207 288.324C706.207 288.324 745.007 323.176 770.943 344.224C821.453 385.215 906.299 441.312 906.299 441.312C906.299 441.312 861.809 389.011 832.736 355.992C802.089 321.185 753.287 267.729 753.287 267.729C753.287 267.729 898.415 376.817 988.69 450.138C1084.85 528.243 1229.98 656.084 1229.98 656.084V714.926C1229.98 721.987 947.494 491.328 926.897 476.617C906.299 461.907 776.828 388.355 776.828 388.355ZM1597.79 364.818L1538.94 473.675L1644.87 385.413C1621.33 419.737 1573.66 488.974 1571.31 491.328C1568.96 493.681 1535.02 558.995 1518.34 591.358L1597.79 503.096L1574.25 603.127L1597.79 544.285L1644.87 473.675L1624.28 591.358L1659.59 473.675L1727.26 335.397L1597.79 364.818ZM1945.01 141.22L1850.85 238.309C1850.85 238.309 1875.33 225.851 1892.05 220.656C1908.83 215.439 1936.18 211.83 1936.18 211.83C1936.18 211.83 1894.68 245.624 1871.45 270.672C1848.63 295.276 1818.48 338.339 1818.48 338.339C1818.48 338.339 1853.21 314.704 1877.33 303.034C1900.58 291.791 1939.13 279.498 1939.13 279.498C1939.13 279.498 1889.34 333.942 1859.68 370.702C1828.22 409.69 1783.17 473.675 1783.17 473.675C1783.17 473.675 1833.75 427.094 1868.51 400.123C1901.75 374.328 1956.78 338.339 1956.78 338.339C1956.78 338.339 1923.94 379.85 1906.76 408.949C1889.25 438.599 1868.51 488.386 1868.51 488.386C1868.51 488.386 1901.74 451.693 1924.41 429.544C1947.69 406.806 1986.21 373.644 1986.21 373.644C1986.21 373.644 1968.77 423.465 1959.72 456.023C1950.25 490.125 1939.13 544.285 1939.13 544.285C1939.13 544.285 1961.35 502.396 1977.38 476.617C1993.54 450.637 2021.52 411.891 2021.52 411.891C2021.52 411.891 2014.45 447.564 2012.69 470.733C2010.86 494.792 2012.69 532.517 2012.69 532.517C2012.69 532.517 2020.15 506.791 2027.4 491.328C2034.18 476.877 2048 456.023 2048 456.023C2048 456.023 2048.65 477.556 2048 491.328C2047.4 504.004 2045.06 523.691 2045.06 523.691C2045.06 523.691 2127.91 477.63 2183.36 453.081C2271.08 414.244 2321.39 390.609 2415.82 373.644C2487.21 360.817 2601.2 361.876 2601.2 361.876C2601.2 361.876 2519.91 377.436 2468.78 391.297C2405.65 408.412 2309.89 444.254 2309.89 444.254C2309.89 444.254 2407.49 417.263 2471.72 411.891C2538.18 406.334 2642.39 417.776 2642.39 417.776C2642.39 417.776 2561.12 427.267 2509.98 438.37C2459.84 449.254 2383.45 473.675 2383.45 473.675C2383.45 473.675 2598.54 457.455 2736.55 458.965C2845.86 460.161 3016.09 473.675 3016.09 473.675L2977.84 217.714L2742.44 82.3783C2742.44 82.3783 2483.49 132.394 2459.95 132.394C2436.41 132.394 2274.57 102.973 2274.57 102.973L2186.3 182.409L1945.01 141.22Z" fill="#170E00"/>
<path d="M429.609 2444.87C429.609 2444.87 572.644 2545.28 647.356 2627.28C698.743 2683.67 725.097 2718.22 765.057 2783.21C804.622 2847.56 850.391 2956.79 850.391 2956.79C850.391 2956.79 833.433 2858.08 812.138 2797.92C790.016 2735.43 738.575 2644.93 738.575 2644.93L865.103 2830.28L959.264 2912.66C959.264 2912.66 1033.05 3145.33 1065.2 3298.07C1095.11 3440.23 1121.1 3665.83 1121.1 3665.83C1121.1 3665.83 1120.97 3440.79 1103.45 3298.07C1079.91 3106.35 994.575 2815.57 994.575 2815.57C994.575 2815.57 1102.78 3099.78 1144.64 3289.25C1207.7 3574.64 1206.44 4035.11 1206.44 4035.11C1206.44 4035.11 1236.09 3577.6 1194.67 3289.25C1160.11 3048.72 1041.66 2686.12 1041.66 2686.12C1041.66 2686.12 1186.14 3063.27 1235.86 3315.73C1293.2 3606.81 1291.77 4073.36 1291.77 4073.36C1299.98 4076.94 1307.86 4080.35 1315.51 4083.61C1315.51 4083.61 1326.26 3612.73 1282.94 3315.73C1244.05 3049.07 1121.1 2644.93 1121.1 2644.93C1121.1 2644.93 1269.94 3050.85 1321.2 3321.61C1378.61 3624.93 1380.05 4109.9 1380.05 4109.9C1386.84 4112.51 1393.68 4115.1 1400.64 4117.68C1400.64 4117.68 1413.61 3629.81 1371.22 3321.61C1334.95 3057.9 1221.15 2656.7 1221.15 2656.7C1221.15 2656.7 1366.19 3064.7 1415.36 3336.32C1471.48 3646.39 1468.32 4141.46 1468.32 4141.46C1472.16 4142.75 1476.09 4144.06 1480.09 4145.39C1485.08 4147.05 1489.98 4148.67 1494.8 4150.26C1494.8 4150.26 1506.76 3651.33 1462.44 3336.32C1427.67 3089.26 1324.14 2712.6 1324.14 2712.6C1324.14 2712.6 1457.28 3087.13 1503.63 3336.32C1563.21 3656.6 1553.66 4169 1553.66 4169C1563.66 4172.06 1573.4 4174.97 1582.98 4177.76C1582.98 4177.76 1605.49 3661.82 1559.54 3336.32C1529.3 3122.1 1441.84 2794.98 1441.84 2794.98C1441.84 2794.98 1565.09 3155.68 1606.62 3395.16C1660.02 3703.1 1644.87 4194.53 1644.87 4194.53C1653.65 4196.72 1662.45 4198.85 1671.36 4200.92C1671.36 4200.92 1687.62 3708.36 1656.64 3395.16C1643.75 3264.83 1612.51 3062.71 1612.51 3062.71C1612.51 3062.71 1676.12 3311.95 1700.78 3474.6C1744.12 3760.44 1733.15 4214.19 1733.15 4214.19C1742.68 4216.08 1752.46 4217.96 1762.57 4219.84L1759.63 3274.54C1759.63 3274.54 1794.37 3525 1806.71 3686.43C1822.91 3898.28 1821.43 4230.3 1821.43 4230.3C1832.6 4232.2 1843.36 4233.97 1853.79 4235.63L1877.33 3630.53C1877.33 3630.53 1902.33 3884.83 1909.7 4048.3C1913.16 4124.93 1915.59 4244.62 1915.59 4244.62C1925.54 4245.91 1935.31 4247.1 1945.01 4248.19C1945.01 4248.19 1962.25 3903.05 1927.36 3686.43C1912.37 3593.41 1906.6 3541.61 1883.22 3451.06C1847.69 3313.43 1812.94 3240.32 1756.69 3109.78C1685.72 2945.08 1629.92 2860.25 1547.77 2700.83C1471.26 2552.36 1350.62 2321.3 1350.62 2321.3C1350.62 2321.3 1434.97 2538.04 1456.55 2603.74C1474.1 2657.18 1505.93 2753.31 1517.2 2784.8C1519.85 2790.93 1521.29 2794.48 1521.29 2794.98C1521.29 2795.86 1519.78 2792.03 1517.2 2784.8C1494.7 2732.85 1384.99 2495.89 1327.08 2371.32C1302.56 2320.32 1278.23 2272.25 1235.86 2215.39C1189.22 2152.79 1143.66 2116.34 1097.56 2074.17C1139.74 2140.85 1215.26 2271.29 1215.26 2271.29C1215.26 2271.29 1103.45 2162.43 1029.89 2121.24L1147.59 2286C1147.59 2286 1097.2 2240.88 1062.25 2215.39C1025.94 2188.9 965.149 2153.6 965.149 2153.6L1071.08 2306.59C1071.08 2306.59 1020.57 2265.03 985.747 2241.87C951.451 2219.05 894.529 2188.91 894.529 2188.91L1018.11 2341.9C1018.11 2341.9 965.756 2302.04 929.839 2280.11C896.492 2259.76 841.563 2233.04 841.563 2233.04L982.805 2391.91C982.805 2391.91 921.373 2344.67 879.816 2318.36C837.262 2291.42 768 2256.58 768 2256.58L923.954 2424.28C923.954 2424.28 861.485 2376.17 818.023 2350.72C775.005 2325.54 703.264 2294.82 703.264 2294.82L850.391 2444.87C850.391 2444.87 789.441 2402.26 747.402 2380.14C709.612 2360.26 647.356 2336.01 647.356 2336.01L794.483 2477.23C794.483 2477.23 727.684 2435.29 682.667 2412.51C642.277 2392.06 576.736 2365.43 576.736 2365.43L744.46 2524.31C744.46 2524.31 674.582 2477.91 626.759 2453.7C582.2 2431.14 509.057 2403.68 509.057 2403.68C565.946 2454.68 673.839 2550.78 673.839 2550.78C673.839 2550.78 601.568 2501.54 550.253 2480.17C504.935 2461.3 429.609 2444.87 429.609 2444.87Z" fill="#78812D"/>
<path d="M2015.63 3192.16C2015.63 3192.16 2087 3396.32 2139.22 3524.61C2224.28 3733.63 2383.45 4048.3 2383.45 4048.3C2383.45 4048.3 2419 4123.9 2454.07 4157.16C2473.12 4175.23 2498.21 4194.53 2498.21 4194.53C2455.05 4082.04 2368.15 3855.3 2365.79 3848.24C2363.44 3841.18 2311.85 3700.16 2286.34 3630.53L2568.83 4231.67C2647.9 4217.79 2711.25 4200.81 2804.23 4174.81C2842.56 4164.1 2875.99 4154.57 2907.22 4145.08C2907.22 4145.08 2877.79 4030.65 2804.23 3865.9C2730.67 3701.14 2662.78 3640.05 2557.06 3474.6L2642.39 3721.73L2415.82 3377.51L2530.57 3704.08L2271.63 3292.19C2271.63 3292.19 2305.35 3404.09 2330.48 3474.6C2357.84 3551.37 2406.99 3668.78 2406.99 3668.78L2145.1 3239.23L2248.09 3548.15L2015.63 3192.16Z" fill="#78812D"/>
<path d="M1850.85 238.309L1945.01 141.22L2186.3 182.409L2274.57 102.973C2274.57 102.973 2436.41 132.394 2459.95 132.394C2483.49 132.394 2742.44 82.3783 2742.44 82.3783L2977.84 217.714L3016.09 473.675C3016.09 473.675 2845.86 460.161 2736.55 458.965C2598.54 457.455 2383.45 473.675 2383.45 473.675C2383.45 473.675 2459.84 449.254 2509.98 438.37C2561.12 427.267 2642.39 417.776 2642.39 417.776C2642.39 417.776 2538.18 406.334 2471.72 411.891C2407.49 417.263 2309.89 444.254 2309.89 444.254C2309.89 444.254 2405.65 408.412 2468.78 391.297C2519.91 377.436 2601.2 361.876 2601.2 361.876C2601.2 361.876 2487.21 360.817 2415.82 373.644C2321.39 390.609 2271.08 414.244 2183.36 453.081C2127.91 477.63 2045.06 523.691 2045.06 523.691C2045.06 523.691 2047.4 504.004 2048 491.328C2048.65 477.556 2048 456.023 2048 456.023C2048 456.023 2034.18 476.877 2027.4 491.328C2020.15 506.791 2012.69 532.517 2012.69 532.517C2012.69 532.517 2010.86 494.792 2012.69 470.733C2014.45 447.564 2021.52 411.891 2021.52 411.891C2021.52 411.891 1993.54 450.637 1977.38 476.617C1961.35 502.396 1939.13 544.285 1939.13 544.285C1939.13 544.285 1950.25 490.125 1959.72 456.023C1968.77 423.465 1986.21 373.644 1986.21 373.644C1986.21 373.644 1947.69 406.806 1924.41 429.544C1901.74 451.693 1868.51 488.386 1868.51 488.386C1868.51 488.386 1889.25 438.599 1906.76 408.949C1923.94 379.85 1956.78 338.339 1956.78 338.339C1956.78 338.339 1901.75 374.328 1868.51 400.123C1833.75 427.094 1783.17 473.675 1783.17 473.675C1783.17 473.675 1828.22 409.69 1859.68 370.702C1889.34 333.942 1939.13 279.498 1939.13 279.498C1939.13 279.498 1900.58 291.791 1877.33 303.034C1853.21 314.704 1818.48 338.339 1818.48 338.339C1818.48 338.339 1848.63 295.276 1871.45 270.672C1894.68 245.624 1936.18 211.83 1936.18 211.83C1936.18 211.83 1908.83 215.439 1892.05 220.656C1875.33 225.851 1850.85 238.309 1850.85 238.309Z" fill="#78812D"/>
<path d="M1538.94 473.675L1597.79 364.818L1727.26 335.397L1659.59 473.675L1624.28 591.358L1644.87 473.675L1597.79 544.285L1574.25 603.127L1597.79 503.096L1518.34 591.358C1535.02 558.995 1568.96 493.681 1571.31 491.328C1573.66 488.974 1621.33 419.737 1644.87 385.413L1538.94 473.675Z" fill="#78812D"/>
<path d="M2657.1 3377.51L1474.21 1879.99C1474.21 1879.99 1638.09 2146.07 1744.92 2315.42C1870.93 2515.17 2071.54 2824.4 2071.54 2824.4C1938.15 2636.11 1668.41 2253.63 1668.41 2253.63C1668.41 2253.63 1388.87 1782.9 1388.87 1791.73C1388.87 1798.79 1555.62 2114.38 1638.99 2271.29C1722.36 2428.2 2006.8 2877.36 2006.8 2877.36C2006.8 2877.36 1761.08 2525.18 1615.45 2291.88C1503.07 2111.85 1338.85 1824.09 1338.85 1824.09C1338.85 1824.09 1486.86 2120.52 1588.97 2306.59C1721.78 2548.62 1947.95 2915.6 1947.95 2915.6C1947.95 2915.6 1953.84 2924.43 1942.07 2930.31C1930.3 2936.2 1927.36 2930.31 1927.36 2930.31C1927.36 2930.31 1728.6 2597.66 1603.68 2383.09C1480.42 2171.37 1291.77 1838.8 1291.77 1838.8C1291.77 1838.8 1433.93 2142.51 1533.06 2333.07C1673.87 2603.76 1918.53 3012.69 1918.53 3012.69L2657.1 3377.51Z" fill="#CB3000"/>
<path d="M2918.99 2990.61L2971.95 4121.86C2997.22 4113.34 3016.27 4108.71 3042.57 4098.41L3051.4 3742.33C3059.25 3853.15 3074.94 4076.9 3074.94 4085.36C3093.47 4077.7 3112.92 4069.35 3133.79 4060.07C3133.79 4025.13 3133.46 3963.03 3132.27 3932.98C3130.82 3921.47 3130.13 3914.47 3130.85 3915.91C3131.42 3917.05 3131.89 3923.38 3132.27 3932.98C3136.74 3968.57 3148.51 4047.35 3148.51 4053.49C3171.1 4043.3 3191.29 4033.81 3210.3 4024.47C3210.3 4024.47 3182.9 3748.58 3148.51 3574.63C3123.05 3445.87 3114.26 3371.28 3069.06 3248.06C3037.72 3162.62 2971.95 3036.23 2971.95 3036.23V3248.06C2971.95 3248.06 2961.05 3172.44 2951.36 3124.49C2940.7 3071.77 2918.99 2990.61 2918.99 2990.61Z" fill="#CB3000"/>
<path d="M2768.92 3574.63L2836.6 3633.47L2863.08 2912.66L2963.13 2942.08C2926.84 2883.24 2898.79 2820.66 2854.25 2747.9C2804.46 2666.56 2762.05 2616.49 2718.9 2550.78L2745.38 2709.66L2683.59 2583.15C2683.59 2583.15 2715.66 2823.06 2730.67 2977.39C2753.29 3210 2768.92 3574.63 2768.92 3574.63Z" fill="#CB3000"/>
<path d="M2327.54 2515.48C2306.64 2560.3 2345.82 2624.63 2395.22 2627.28C2435.18 2629.42 2465.56 2599.15 2471.72 2559.61C2478.53 2516 2445.18 2473.93 2401.1 2471.35C2367.66 2469.39 2341.7 2485.12 2327.54 2515.48Z" fill="#CB3000"/>
<path d="M3189.7 2515.48L3328 2656.7C3328 2656.7 3292.78 2607.74 3272.09 2574.32C3254.51 2545.92 3227.95 2500.77 3227.95 2500.77L3033.75 2333.07L2886.62 2203.62L2801.29 2209.5C2857.2 2247.75 2909.6 2277.73 2974.9 2327.19C3063.82 2394.54 3189.7 2515.48 3189.7 2515.48Z" fill="#CB3000"/>
<path d="M3375.08 2450.75C3335.38 2474.61 3298.77 2456.85 3257.38 2436.04C3254.24 2434.46 3251.31 2433.02 3248.55 2431.64C3248.55 2431.64 3327.1 2550.86 3366.25 2633.16C3392.37 2688.08 3403.05 2720.65 3425.1 2777.33C3453.04 2849.14 3453.21 2896.55 3492.78 2962.68C3509.44 2990.51 3540.94 3030.34 3540.94 3030.34C3608.93 3086.65 3742.59 3196.66 3819.4 3259.83L3848.83 3230.41C3848.83 3230.41 3769.62 3191.27 3725.24 3156.85C3671.29 3115.01 3604.6 3030.34 3604.6 3030.34C3604.6 3030.34 3569.29 2980.33 3575.17 2974.44C3578.05 2971.56 3590.1 2976.44 3601.66 2982.17C3609.5 2982.54 3629.31 2983.86 3645.79 2986.21C3666.39 2989.15 3728.18 3021.52 3754.67 3033.29C3781.15 3045.05 3831.17 3045.05 3840 3039.17C3848.83 3033.29 3845.89 3018.58 3840 2995.04C3834.11 2971.5 3789.98 2903.83 3763.49 2880.3C3737.01 2856.76 3728.18 2853.82 3666.39 2836.17C3604.6 2818.51 3592.83 2809.69 3536.92 2756.73C3492.19 2714.36 3482.97 2619.43 3483.95 2577.26C3477.36 2573.97 3471.54 2570.83 3466.3 2567.53C3465.32 2603.14 3463.36 2682 3463.36 2712.6C3463.36 2750.85 3519.26 2818.51 3569.29 2847.94C3619.31 2877.36 3704.64 2895.01 3731.13 2909.72C3752.31 2921.49 3798.8 2980.33 3798.8 2980.33C3798.8 2980.33 3781.74 2969.74 3748.78 2950.91C3707.59 2927.37 3654.62 2912.66 3604.6 2897.95C3554.57 2883.24 3542.8 2868.53 3510.44 2836.17C3478.07 2803.8 3451.59 2759.67 3433.93 2736.14C3419.81 2717.31 3420.2 2687.1 3422.16 2674.35V2574.32C3422.16 2553.73 3407.45 2547.84 3392.74 2527.25C3380.97 2510.77 3376.06 2469.39 3375.08 2450.75Z" fill="#CB3000"/>
<path d="M3316.23 2744.96C3351.54 2783.21 3425.1 2897.95 3425.1 2897.95L3357.43 2727.31C3357.43 2727.31 3220.74 2591.98 3127.91 2515.48C3041.52 2444.29 2895.45 2347.78 2895.45 2347.78C2895.45 2347.78 3280.92 2706.72 3316.23 2744.96Z" fill="#CB3000"/>
<path d="M3010.21 2550.78L3313.29 2836.17C3360.5 2876.4 3445.69 2949.13 3481.85 2980.33C3481.85 2980.33 3462.89 2955.59 3451.59 2939.14C3440.76 2923.38 3425.1 2897.95 3425.1 2897.95C3425.1 2897.95 3316.23 2791.05 3260.32 2736.14C3204.41 2681.22 3010.21 2550.78 3010.21 2550.78Z" fill="#CB3000"/>
<path d="M3769.38 3324.55L3436.87 3036.23L3095.54 2756.73C3095.54 2756.73 3310.12 2891.65 3445.7 2995.04C3584.35 3100.76 3795.86 3292.19 3795.86 3292.19L3769.38 3324.55Z" fill="#CB3000"/>
<path d="M3722.3 3392.22C3637.95 3316.71 3466.3 3162.74 3466.3 3162.74C3466.3 3162.74 3304.46 3024.46 3225.01 2956.79L3489.84 3145.09L3748.78 3356.92L3722.3 3392.22Z" fill="#CB3000"/>
<path d="M3501.61 3289.25C3501.61 3289.25 3567.56 3348.17 3607.54 3386.34C3639.87 3417.2 3686.99 3465.77 3686.99 3465.77C3686.99 3465.77 3650.25 3406.34 3619.31 3374.57C3579.71 3333.89 3501.61 3289.25 3501.61 3289.25Z" fill="#CB3000"/>
<path d="M3884.14 3203.93L4013.61 3068.59L3787.03 2853.82C3823.33 2905.8 3895.91 3012.69 3898.85 3036.23C3901.79 3059.76 3907.68 3071.53 3848.83 3089.19C3801.75 3103.31 3738.97 3079.78 3713.47 3066.25L3884.14 3203.93Z" fill="#CB3000"/>
<path d="M3575.17 2633.16C3602.64 2651.8 3659.33 2697.3 3666.39 2730.25C3675.22 2771.44 3645.79 2759.67 3636.97 2753.79C3628.14 2747.9 3596.36 2691.42 3575.17 2677.29C3548.69 2659.64 3531.03 2647.87 3528.09 2650.82C3525.15 2653.76 3530.15 2690.04 3539.86 2712.6C3554.65 2746.96 3578.11 2774.38 3604.6 2783.21C3631.08 2792.04 3660.51 2800.86 3675.22 2803.8L3675.72 2803.9C3690.3 2806.82 3706.32 2810.03 3716.41 2800.86C3728.35 2790.02 3720.53 2778.5 3713.47 2759.67C3704.64 2736.14 3682.25 2687.19 3648.74 2650.82C3631.64 2632.25 3608.52 2615.51 3600.18 2608.16L3575.17 2633.16Z" fill="#CB3000"/>
<path d="M1382.99 1262.15L1238.8 985.597C1238.8 985.597 1134.53 962.202 1074.02 929.698C998.028 888.874 967.847 846.129 906.299 785.536C841.903 722.139 820.3 672.579 753.287 611.953C732.122 592.805 697.379 564.88 697.379 564.88H647.356L503.172 470.733L435.494 444.254L647.356 624.702C647.356 624.702 820.966 726.694 956.322 859.088C1091.68 991.482 1132.87 1006.19 1153.47 1035.61C1174.07 1065.03 1171.43 1082.5 1171.43 1082.5L1382.99 1262.15Z" fill="#CB3000"/>
<path d="M526.713 917.93C526.713 917.93 711.575 1067.46 829.793 1165.06C921.129 1240.47 1062.25 1362.18 1062.25 1362.18C1062.25 1362.18 979.396 1259.7 915.126 1203.31C864.322 1158.73 831.299 1138.15 776.828 1097.4C680.566 1025.38 526.713 917.93 526.713 917.93Z" fill="#CB3000"/>
<path d="M1256.46 1453.39C1256.46 1453.39 1177.04 1395.96 1126.99 1353.36C1050.86 1288.57 1017.14 1236.71 944.552 1168.01C830.859 1060.4 635.586 912.045 635.586 912.045L282.483 629.605C282.483 629.605 468.341 765.006 588.506 850.262C650.386 894.166 686.962 916.195 747.402 962.061C828.621 1023.69 873.428 1059.7 947.494 1129.76C1027.23 1205.19 1063.05 1256.3 1138.76 1335.71C1183.62 1382.77 1256.46 1453.39 1256.46 1453.39Z" fill="#CB3000"/>
<path d="M1282.94 1356.3C1282.94 1356.3 1199.51 1302.49 1150.53 1262.15C1101.59 1221.85 1079.28 1193.49 1032.83 1150.35C908.704 1035.1 844.501 962.779 706.207 864.972C641.665 819.325 599.517 802.55 535.54 756.115C447.181 691.983 323.678 573.706 323.678 573.706C323.678 573.706 469.687 673.923 564.966 735.52C635.646 781.216 680.143 799.666 747.402 850.262C837.045 917.695 875.582 969.512 956.322 1047.38C1032.94 1121.27 1071.77 1164.59 1150.53 1238.62C1199.7 1284.83 1282.94 1356.3 1282.94 1356.3Z" fill="#CB3000"/>
<path d="M1306.48 1276.86C1306.48 1276.86 1206.18 1224.78 1147.59 1182.72C1039.34 1105 1005.85 1030.04 906.299 941.466C814.061 859.397 754.667 822.547 659.126 744.347C547.439 652.93 376.644 506.038 376.644 506.038C376.644 506.038 561.424 622.81 673.839 706.1L675.98 707.686C780.342 785.008 839.893 829.129 935.724 917.93C1027.53 1003 1064.19 1065.72 1156.41 1150.35C1212.89 1202.18 1306.48 1276.86 1306.48 1276.86Z" fill="#CB3000"/>
<path d="M809.195 611.953C809.195 611.953 953.379 803.188 1000.46 841.435C1047.54 879.682 1056.1 888.675 1097.56 909.103C1132.44 926.288 1191.72 941.466 1191.72 941.466L809.195 611.953Z" fill="#CB3000"/>
<path d="M918.069 594.3C918.069 594.3 1032.42 704.875 1112.28 767.883C1159.63 805.248 1236.94 859.088 1236.94 859.088L1236.4 822.312C1236.4 822.312 1160.51 769.761 1112.28 735.52C1035.81 681.236 918.069 594.3 918.069 594.3Z" fill="#CB3000"/>
<path d="M1071.08 776.71C969.897 704.711 823.908 576.648 823.908 576.648C823.908 576.648 942.963 689.032 1021.06 759.057C1104.63 833.997 1238.24 947.35 1238.24 947.35L1237.33 885.567C1237.33 885.567 1134.31 821.703 1071.08 776.71Z" fill="#CB3000"/>
<path d="M1533.06 1747.6C1533.06 1747.6 1512.46 1800.55 1512.46 1812.32C1512.46 1824.09 2068.6 2524.31 2068.6 2524.31L2259.86 2350.72L1533.06 1747.6Z" fill="white"/>
<path d="M2180.41 2677.29L2309.89 2839.11V2747.9L2236.32 2630.22L2180.41 2677.29Z" fill="white"/>
<path d="M2509.98 2747.9L2633.56 3192.16V2709.66L2542.34 2630.22L2509.98 2747.9Z" fill="white"/>
<path d="M2501.15 2388.97L2604.14 2483.12L2577.66 2309.53L2501.15 2388.97Z" fill="white"/>
<path d="M1615.45 1691.7C1617.8 1694.05 1715.81 1791.97 1789.06 1847.63C1880.71 1917.26 2044.47 2005.91 2042.11 2003.56L1897.93 1859.4C1925.39 1876.07 1977.38 1906.47 1977.38 1906.47C1977.38 1906.47 1875.98 1803.43 1809.66 1738.77C1741.56 1672.39 1633.1 1571.07 1633.1 1571.07C1633.1 1571.07 1690.97 1668.16 1718.44 1715.23L1606.62 1644.62L1739.03 1777.02L1615.45 1691.7Z" fill="white"/>
<path d="M2245.15 617.837C2245.15 617.837 2460.81 560.893 2607.08 538.401C2778.77 512.001 2974.9 494.27 3039.63 500.154C3104.37 506.038 3151.45 520.748 3151.45 520.748C3024.92 535.459 2914.17 545.336 2763.03 567.822C2647.74 584.975 2587.98 603.558 2471.72 611.953C2384.62 618.243 2315.77 617.837 2245.15 617.837Z" fill="white"/>
<path d="M2448.18 1924.12C2452.11 1897.64 2477.61 1835.27 2548.23 1797.61C2618.85 1759.95 2669.85 1742.69 2686.53 1738.77L2674.76 1771.13C2678.68 1764.27 2702.28 1749.51 2721.84 1738.77C2739.43 1729.11 2768.92 1718.18 2768.92 1718.18L2771.86 1768.19C2771.86 1768.19 2790.68 1745.78 2804.23 1732.89C2817.24 1720.52 2839.54 1703.47 2839.54 1703.47C2839.54 1703.47 2857.08 1725.9 2866.02 1741.71C2874.12 1756.03 2883.68 1779.96 2883.68 1779.96L2895.45 1703.47C2895.45 1703.47 2918.97 1723.23 2930.76 1738.77C2941.96 1753.53 2954.3 1779.96 2954.3 1779.96L2948.41 1712.29C2948.41 1712.29 2973.04 1726.75 2986.67 1738.77C2999.48 1750.07 3016.09 1771.13 3016.09 1771.13L2998.44 1712.29C2998.44 1712.29 3023.03 1728.73 3036.69 1741.71C3050.87 1755.19 3069.06 1779.96 3069.06 1779.96L3060.23 1744.65L3174.99 1838.8L3189.7 1971.19L3130.85 1915.3C3130.85 1915.3 3143.31 1948.73 3145.56 1971.19C3147.74 1992.95 3142.62 2027.09 3142.62 2027.09L3086.71 1959.43C3086.71 1959.43 3093.42 1995.57 3089.66 2018.27C3086.02 2040.16 3069.06 2071.23 3069.06 2071.23L3042.57 1991.79C3042.57 1991.79 3027.59 2011.07 3019.03 2024.15C3010.3 2037.51 2998.44 2059.46 2998.44 2059.46L2992.55 1985.91C2992.55 1985.91 2973.62 2001.03 2963.13 2012.38C2951.43 2025.04 2936.64 2047.69 2936.64 2047.69L2933.7 1971.19C2933.7 1971.19 2905.47 1989.28 2889.56 2003.56C2874.43 2017.14 2854.25 2041.8 2854.25 2041.8L2895.45 1941.77C2895.45 1941.77 2855.08 1965.52 2830.71 1982.96C2806.78 2000.09 2771.86 2030.04 2771.86 2030.04L2839.54 1915.3C2839.54 1915.3 2791.92 1936.77 2763.03 1953.54C2734.37 1970.18 2692.41 2000.62 2692.41 2000.62L2754.21 1888.82C2754.21 1888.82 2706.21 1907.68 2677.7 1924.12C2648.42 1941 2607.08 1974.14 2607.08 1974.14L2671.82 1871.16C2671.82 1871.16 2624.1 1888.57 2595.31 1903.53C2566.45 1918.52 2524.69 1947.66 2524.69 1947.66L2595.31 1838.8C2595.31 1838.8 2542.67 1853.56 2512.92 1871.16C2484.81 1887.8 2448.18 1924.12 2448.18 1924.12Z" fill="#FFDDA9"/>
<path fill-rule="evenodd" clip-rule="evenodd" d="M2565.89 1679.93L2568.83 1585.78L2754.21 1494.58L2713.01 1532.82L2789.52 1506.35L2710.07 1591.67L2842.48 1529.88L2798.34 1591.67L2883.68 1547.53L2863.08 1585.78L2989.61 1524L2986.67 1494.58L3030.8 1532.82L2954.3 1450.45L2833.66 1426.91L2789.52 1373.95L2748.32 1435.74L2780.69 1447.5L2695.36 1482.81L2607.08 1524L2692.41 1441.62L2780.69 1323.94L2857.2 1265.1L2886.62 1256.27L2821.89 1306.28L2807.17 1329.82L2833.66 1373.95L2921.93 1335.71L3066.11 1359.24L3092.6 1323.94L2945.47 1059.15L3074.94 973.829L3039.63 770.825L2598.25 729.636L2215.72 711.984L1959.72 803.188L1668.41 950.292L1786.11 926.756L1683.13 985.597L1859.68 967.945L1759.63 1023.84C1759.63 1023.84 1653.7 1032.67 1633.1 1041.5C1612.51 1050.32 1608.34 1095.68 1600.74 1132.7C1584.96 1209.53 1587.28 1260.86 1618.39 1332.76C1645.91 1396.36 1683.04 1420.23 1733.15 1468.1C1765.6 1499.09 1821.43 1541.65 1821.43 1541.65L1915.59 1476.93C1915.59 1476.93 1905.15 1438.46 1894.99 1415.14C1884.51 1391.1 1862.62 1356.3 1862.62 1356.3L1768.46 1359.24L1709.61 1288.63L1753.75 1200.37L1686.07 1135.64C1686.07 1135.64 1653.7 1215.08 1656.64 1241.56C1659.59 1268.04 1689.01 1338.65 1700.78 1353.36C1712.55 1368.07 1730.14 1388.43 1756.69 1397.49C1783.9 1406.78 1830.25 1400.43 1830.25 1400.43C1830.25 1400.43 1797.89 1429.85 1786.11 1432.79C1774.34 1435.74 1700.78 1400.43 1686.07 1385.72C1671.36 1371.01 1644.53 1316.32 1636.05 1265.1C1628.52 1219.63 1631.67 1192.8 1638.99 1147.41C1644.09 1115.77 1659.59 1067.98 1659.59 1067.98C1659.59 1067.98 1740.53 1082.82 1792 1076.8C1832.14 1072.11 1852.12 1056.58 1892.05 1050.32C1917.12 1046.39 1956.78 1044.44 1956.78 1044.44C1956.78 1044.44 1942.94 1051.94 1936.18 1059.15C1930.52 1065.19 1924.41 1076.8 1924.41 1076.8C1924.41 1076.8 1976 1055.89 2009.75 1044.44C2043.83 1032.87 2098.02 1017.96 2098.02 1017.96C2098.02 1017.96 2003.25 1081.66 1959.72 1138.59C1943.08 1160.36 1934.5 1173.31 1921.47 1197.43C1907.77 1222.78 1892.05 1265.1 1892.05 1265.1C1892.05 1265.1 1938.29 1224.34 1971.49 1203.31C2006.23 1181.32 2065.66 1156.24 2065.66 1156.24C2065.66 1156.24 2021.18 1198.4 1997.98 1229.79C1975.02 1260.85 1947.95 1315.11 1947.95 1315.11C1947.95 1315.11 1989.44 1273.85 2018.57 1250.38C2048.12 1226.59 2098.02 1194.49 2098.02 1194.49C2098.02 1194.49 2066.38 1245.83 2048 1279.81C2030.89 1311.44 2006.8 1362.18 2006.8 1362.18C2006.8 1362.18 2065.84 1312.7 2109.79 1291.57C2159.3 1267.78 2245.15 1253.33 2245.15 1253.33C2245.15 1253.33 2171.13 1290.64 2130.39 1323.94C2094.53 1353.25 2048 1409.26 2048 1409.26C2048 1409.26 2110.41 1360.23 2156.87 1341.59C2204.77 1322.37 2286.34 1315.11 2286.34 1315.11C2286.34 1315.11 2246.9 1331.9 2224.55 1347.47C2205.84 1360.51 2180.41 1385.72 2180.41 1385.72C2180.41 1385.72 2220.91 1367.4 2248.09 1359.24C2274 1351.47 2315.77 1344.53 2315.77 1344.53C2315.77 1344.53 2252.31 1370.68 2215.72 1394.55C2179.5 1418.18 2130.39 1465.16 2130.39 1465.16C2130.39 1465.16 2184.66 1427.07 2224.55 1415.14C2267.62 1402.27 2339.31 1406.32 2339.31 1406.32C2339.31 1406.32 2250.61 1425.2 2201.01 1453.39C2154.19 1479.99 2095.08 1541.65 2095.08 1541.65C2095.08 1541.65 2159.17 1496.02 2206.9 1485.75C2251.85 1476.08 2324.6 1488.69 2324.6 1488.69C2324.6 1488.69 2215.38 1507.77 2159.82 1547.53C2112.79 1581.19 2062.71 1659.33 2062.71 1659.33C2062.71 1659.33 2112.27 1609.94 2150.99 1588.72C2194.33 1564.97 2271.63 1550.48 2271.63 1550.48C2271.63 1550.48 2217 1581.16 2189.24 1609.32C2164.39 1634.53 2136.28 1682.87 2136.28 1682.87C2136.28 1682.87 2184.99 1638.35 2221.61 1618.14C2259.17 1597.42 2324.6 1579.9 2324.6 1579.9C2324.6 1579.9 2289.61 1607.87 2271.63 1629.91C2253.7 1651.91 2233.38 1691.7 2233.38 1691.7C2233.38 1691.7 2274.61 1662.99 2304 1650.51C2336.84 1636.56 2392.28 1626.97 2392.28 1626.97C2392.28 1626.97 2349.45 1659.6 2327.54 1685.81C2303.4 1714.69 2277.52 1768.19 2277.52 1768.19C2277.52 1768.19 2323.11 1721.6 2356.97 1697.58C2387.19 1676.14 2439.36 1650.51 2439.36 1650.51C2439.36 1650.51 2411.9 1682.26 2401.1 1706.41C2395.17 1719.68 2389.33 1741.71 2389.33 1741.71C2389.33 1741.71 2427.63 1717.52 2451.13 1700.52C2472.36 1685.16 2504.09 1659.33 2504.09 1659.33L2474.67 1744.65L2565.89 1679.93ZM2430.53 1053.27C2390.05 1053.44 2327.54 1065.03 2327.54 1065.03L2430.53 1070.92C2470.75 1073.22 2474.67 1085.63 2474.67 1085.63C2474.67 1085.63 2451.24 1083.83 2436.41 1085.63C2413.68 1088.38 2380.51 1103.28 2380.51 1103.28C2380.51 1103.28 2414.7 1094.17 2436.41 1097.4C2453.31 1099.91 2460.53 1112.46 2477.61 1112.11C2498.16 1111.68 2505.71 1096.48 2524.69 1088.57C2544.82 1080.19 2577.66 1070.92 2577.66 1070.92C2577.66 1070.92 2589.43 1094.45 2621.79 1103.28C2654.16 1112.11 2695.36 1112.11 2695.36 1112.11C2695.36 1112.11 2676.86 1128.45 2662.99 1135.64C2643.93 1145.52 2610.02 1150.35 2610.02 1150.35C2610.02 1150.35 2637.57 1157.67 2654.16 1165.06C2671.08 1172.61 2695.36 1188.6 2695.36 1188.6L2768.92 1141.53L2786.57 1159.18L2863.08 1141.53L2836.6 1085.63C2836.6 1085.63 2889.09 1074.86 2918.99 1047.38C2946.7 1021.91 2980.78 959.119 2980.78 959.119C2980.78 959.119 2960.97 978.052 2945.47 985.597C2927.43 994.382 2895.45 997.366 2895.45 997.366L2927.82 965.003C2927.82 965.003 2907.3 977.658 2892.51 979.713C2876.41 981.949 2863.08 979.713 2851.31 973.829C2839.54 967.945 2662.99 864.972 2662.99 864.972C2662.99 864.972 2554.42 909.457 2486.44 941.466C2419.95 972.772 2318.71 1026.79 2318.71 1026.79C2318.71 1026.79 2414.97 1003.76 2477.61 994.424C2534.72 985.912 2624.74 979.713 2624.74 979.713L2695.36 1017.96C2695.36 1017.96 2631.65 1017.48 2592.37 1026.79C2557.69 1035 2507.03 1059.15 2507.03 1059.15C2507.03 1059.15 2460.49 1053.14 2430.53 1053.27ZM2039.17 888.509C2012.6 904.561 1977.38 938.524 1977.38 938.524C1977.38 938.524 2020.65 913.69 2048 897.335C2074.83 881.292 2115.68 856.146 2115.68 856.146C2115.68 856.146 2066.94 871.735 2039.17 888.509ZM2039.17 814.957C2009.58 830.79 1971.49 867.914 1971.49 867.914C1971.49 867.914 2017.81 843.969 2048 829.667C2086.59 811.384 2148.05 785.536 2148.05 785.536C2148.05 785.536 2078 794.178 2039.17 814.957ZM2086.25 920.872C2060.68 933.951 2027.4 965.003 2027.4 965.003L2148.05 900.277C2148.05 900.277 2108.9 909.291 2086.25 920.872ZM1862.62 1020.9L1771.4 1062.09C1771.4 1062.09 1802.94 1055.93 1821.43 1047.38C1838.78 1039.35 1862.62 1020.9 1862.62 1020.9Z" fill="#FFDDA9"/>
<path d="M3210.3 2456.64C3219.52 2473.27 3224.03 2486.06 3227.95 2500.77C3227.95 2500.77 3254.51 2545.92 3272.09 2574.32C3292.78 2607.74 3328 2656.7 3328 2656.7C3328 2656.7 3340.99 2675.44 3345.66 2689.06C3350.56 2703.36 3357.43 2727.31 3357.43 2727.31L3425.1 2897.95C3425.1 2897.95 3440.76 2923.38 3451.59 2939.14C3462.89 2955.59 3481.85 2980.33 3481.85 2980.33C3491.51 2988.67 3497.67 2994.05 3498.67 2995.04C3499.93 2996.3 3516.03 3009.72 3540.94 3030.34C3540.94 3030.34 3509.44 2990.51 3492.78 2962.68C3453.21 2896.55 3453.04 2849.14 3425.1 2777.33C3403.05 2720.65 3392.37 2688.08 3366.25 2633.16C3327.1 2550.86 3248.55 2431.64 3248.55 2431.64C3229.5 2422.12 3218.61 2415.9 3201.47 2391.91C3181.85 2364.45 3169.35 2335.3 3142.62 2303.65C3103.7 2257.56 3064.15 2235 3024.92 2203.62L2986.67 2218.33L3127.91 2359.55C3127.91 2359.55 3186.55 2413.79 3210.3 2456.64Z" fill="white"/>
<path d="M3057.29 2191.85L3092.6 2165.37L3225.01 2274.23L3198.53 2318.36L3057.29 2191.85Z" fill="white"/>
<path d="M3189.7 2121.24L3157.33 2150.66L3248.55 2244.81L3289.75 2200.68L3189.7 2121.24Z" fill="white"/>
<path d="M3216.18 2103.59L3298.57 2183.02L3325.06 2156.55L3239.72 2082.99L3216.18 2103.59Z" fill="white"/>
<path d="M3401.56 2427.22C3401.56 2427.22 3386.94 2443.63 3375.08 2450.75C3376.06 2469.39 3380.97 2510.77 3392.74 2527.25C3407.45 2547.84 3422.16 2553.73 3422.16 2574.32V2674.35C3420.2 2687.1 3419.81 2717.31 3433.93 2736.14C3451.59 2759.67 3478.07 2803.8 3510.44 2836.17C3542.8 2868.53 3554.57 2883.24 3604.6 2897.95C3654.62 2912.66 3707.59 2927.37 3748.78 2950.91C3781.74 2969.74 3798.8 2980.33 3798.8 2980.33C3798.8 2980.33 3752.31 2921.49 3731.13 2909.72C3704.64 2895.01 3619.31 2877.36 3569.29 2847.94C3519.26 2818.51 3463.36 2750.85 3463.36 2712.6C3463.36 2682 3465.32 2603.14 3466.3 2567.53C3452.83 2559.04 3443.17 2549.45 3433.93 2533.13C3420.71 2509.79 3422.16 2465.46 3422.16 2465.46L3401.56 2427.22Z" fill="white"/>
<path d="M3407.45 2421.33C3413.33 2431.14 3428.05 2450.75 3428.05 2450.75L3463.36 2421.33L3433.93 2397.8L3407.45 2421.33Z" fill="white"/>
<path d="M3454.53 2377.2L3472.18 2409.56L3504.55 2383.09L3472.18 2356.61L3454.53 2377.2Z" fill="white"/>
<path d="M3575.17 2633.16C3575.17 2633.16 3507.49 2589.03 3483.95 2577.26C3482.97 2619.43 3492.19 2714.36 3536.92 2756.73C3592.83 2809.69 3604.6 2818.51 3666.39 2836.17C3728.18 2853.82 3737.01 2856.76 3763.49 2880.3C3789.98 2903.83 3834.11 2971.5 3840 2995.04C3845.89 3018.58 3848.83 3033.29 3840 3039.17C3831.17 3045.05 3781.15 3045.05 3754.67 3033.29C3728.18 3021.52 3666.39 2989.15 3645.79 2986.21C3629.31 2983.86 3609.5 2982.54 3601.66 2982.17C3613.7 2988.14 3625.2 2995.04 3625.2 2995.04L3713.47 3066.25C3738.97 3079.78 3801.75 3103.31 3848.83 3089.19C3907.68 3071.53 3901.79 3059.76 3898.85 3036.23C3895.91 3012.69 3823.33 2905.8 3787.03 2853.82L4013.61 3068.59L4051.86 3030.34C4051.86 3030.34 3878.23 2890.76 3789.98 2780.27C3758.13 2740.4 3713.47 2674.35 3713.47 2674.35L4087.17 3003.87L4122.48 2974.44L3810.57 2694.95L3666.39 2556.67L3645.79 2565.5C3655.6 2583.15 3675.22 2619.04 3675.22 2621.39C3675.22 2623.75 3641.87 2596.88 3625.2 2583.15L3600.18 2608.16C3608.52 2615.51 3631.64 2632.25 3648.74 2650.82C3682.25 2687.19 3704.64 2736.14 3713.47 2759.67C3720.53 2778.5 3728.35 2790.02 3716.41 2800.86C3706.32 2810.03 3690.3 2806.82 3675.72 2803.9L3675.22 2803.8C3660.51 2800.86 3631.08 2792.04 3604.6 2783.21C3578.11 2774.38 3554.65 2746.96 3539.86 2712.6C3530.15 2690.04 3525.15 2653.76 3528.09 2650.82C3531.03 2647.87 3548.69 2659.64 3575.17 2677.29C3596.36 2691.42 3628.14 2747.9 3636.97 2753.79C3645.79 2759.67 3675.22 2771.44 3666.39 2730.25C3659.33 2697.3 3602.64 2651.8 3575.17 2633.16Z" fill="white"/>
<path d="M3713.47 2527.25L3692.87 2547.84L3763.49 2633.16L3795.86 2594.92L3713.47 2527.25Z" fill="white"/>
<path d="M3745.84 2506.65C3740.7 2513.25 3751.72 2527.25 3751.72 2527.25L3807.63 2577.26L3822.34 2562.55L3769.38 2512.54C3769.38 2512.54 3751.66 2499.18 3745.84 2506.65Z" fill="white"/>
<path d="M3904.74 2730.25L4157.79 2950.91L4187.22 2921.49L3969.47 2730.25H3904.74Z" fill="white"/>
<path d="M3990.07 2718.48L4013.61 2692L4243.13 2892.07L4207.82 2912.66L3990.07 2718.48Z" fill="white"/>
<path fill-rule="evenodd" clip-rule="evenodd" d="M823.908 576.648L553.195 358.934L503.172 388.355L697.379 564.88C697.379 564.88 732.122 592.805 753.287 611.953C820.3 672.579 841.903 722.139 906.299 785.536C967.847 846.129 998.028 888.874 1074.02 929.698C1134.53 962.202 1238.8 985.597 1238.8 985.597L1238.24 947.35C1238.24 947.35 1104.63 833.997 1021.06 759.057C942.963 689.032 823.908 576.648 823.908 576.648ZM1000.46 841.435C953.379 803.188 809.195 611.953 809.195 611.953L1191.72 941.466C1191.72 941.466 1132.44 926.288 1097.56 909.103C1056.1 888.675 1047.54 879.682 1000.46 841.435Z" fill="white"/>
<path d="M1235.86 785.536C1235.86 785.536 853.333 464.849 776.828 400.123C700.322 335.397 659.126 311.861 659.126 311.861L576.736 344.224L823.908 576.648C823.908 576.648 969.897 704.711 1071.08 776.71C1134.31 821.703 1237.33 885.567 1237.33 885.567L1236.94 859.088C1236.94 859.088 1159.63 805.248 1112.28 767.883C1032.42 704.875 918.069 594.3 918.069 594.3C918.069 594.3 1035.81 681.236 1112.28 735.52C1160.51 769.761 1236.4 822.312 1236.4 822.312L1235.86 785.536Z" fill="white"/>
<path d="M676.782 297.15L776.828 388.355C776.828 388.355 906.299 461.907 926.897 476.617C947.494 491.328 1229.98 721.987 1229.98 714.926V656.084C1229.98 656.084 1084.85 528.243 988.69 450.138C898.415 376.817 753.287 267.729 753.287 267.729C753.287 267.729 802.089 321.185 832.736 355.992C861.809 389.011 906.299 441.312 906.299 441.312C906.299 441.312 821.453 385.215 770.943 344.224C745.007 323.176 706.207 288.324 706.207 288.324L676.782 297.15Z" fill="white"/>
<path d="M2892.51 1626.97C2889.56 1621.09 2939.59 1603.43 2948.41 1603.43C2957.24 1603.43 3010.21 1626.97 3010.21 1632.86C3010.21 1638.74 2971.37 1636.94 2948.41 1635.8C2925.35 1634.65 2895.45 1632.86 2892.51 1626.97Z" fill="#FFDDA9"/>
<path d="M3380.97 2191.85C3380.97 2191.85 3392.74 2165.37 3404.51 2144.78C3416.28 2124.18 3575.17 2047.69 3575.17 2047.69L3675.22 2118.3L3483.95 2233.04L3380.97 2191.85Z" fill="#FFDDA9"/>
<path d="M3257.38 2338.95L3328 2388.97L3454.53 2250.69L3360.37 2212.45L3257.38 2338.95Z" fill="#FFDDA9"/>
<path d="M3607.54 2350.72L3707.59 2430.16C3707.59 2430.16 3787.44 2348.16 3842.94 2315.42C3875.71 2296.09 3922.39 2283.06 3922.39 2283.06L3781.15 2183.02L3607.54 2350.72Z" fill="#FFDDA9"/>
<path d="M3486.9 2486.06L3548.69 2536.07L3686.99 2447.81L3592.83 2386.03L3486.9 2486.06Z" fill="#FFDDA9"/>
<path d="M3922.39 2509.6L3993.01 2377.2L4107.77 2465.46L4022.44 2568.44L3922.39 2509.6Z" fill="#FFDDA9"/>
<path d="M3845.89 2636.11L3913.56 2536.07L4001.84 2586.09L3942.99 2665.53L3845.89 2636.11Z" fill="#FFDDA9"/>
<path d="M2327.54 1065.03C2327.54 1065.03 2390.05 1053.44 2430.53 1053.27C2460.49 1053.14 2507.03 1059.15 2507.03 1059.15C2507.03 1059.15 2557.69 1035 2592.37 1026.79C2631.65 1017.48 2695.36 1017.96 2695.36 1017.96L2624.74 979.713C2624.74 979.713 2534.72 985.912 2477.61 994.424C2414.97 1003.76 2318.71 1026.79 2318.71 1026.79C2318.71 1026.79 2419.95 972.772 2486.44 941.466C2554.42 909.457 2662.99 864.972 2662.99 864.972C2662.99 864.972 2839.54 967.945 2851.31 973.829C2863.08 979.713 2876.41 981.949 2892.51 979.713C2907.3 977.658 2927.82 965.003 2927.82 965.003L2895.45 997.366C2895.45 997.366 2927.43 994.382 2945.47 985.597C2960.97 978.052 2980.78 959.119 2980.78 959.119C2980.78 959.119 2946.7 1021.91 2918.99 1047.38C2889.09 1074.86 2836.6 1085.63 2836.6 1085.63L2863.08 1141.53L2786.57 1159.18L2768.92 1141.53L2695.36 1188.6C2695.36 1188.6 2671.08 1172.61 2654.16 1165.06C2637.57 1157.67 2610.02 1150.35 2610.02 1150.35C2610.02 1150.35 2643.93 1145.52 2662.99 1135.64C2676.86 1128.45 2695.36 1112.11 2695.36 1112.11C2695.36 1112.11 2654.16 1112.11 2621.79 1103.28C2589.43 1094.45 2577.66 1070.92 2577.66 1070.92C2577.66 1070.92 2544.82 1080.19 2524.69 1088.57C2505.71 1096.48 2498.16 1111.68 2477.61 1112.11C2460.53 1112.46 2453.31 1099.91 2436.41 1097.4C2414.7 1094.17 2380.51 1103.28 2380.51 1103.28C2380.51 1103.28 2413.68 1088.38 2436.41 1085.63C2451.24 1083.83 2474.67 1085.63 2474.67 1085.63C2474.67 1085.63 2470.75 1073.22 2430.53 1070.92L2327.54 1065.03Z" fill="#170E00"/>
</svg>
