<svg version="1.1" xmlns="http://www.w3.org/2000/svg" xmlns:xlink="http://www.w3.org/1999/xlink" width="16" height="24" viewBox="0,0,170.65625,256"><g fill="#339af0" fill-rule="nonzero" stroke="none" stroke-width="1" stroke-linecap="butt" stroke-linejoin="miter" stroke-miterlimit="10" stroke-dasharray="" stroke-dashoffset="0" font-family="none" font-weight="none" font-size="none" text-anchor="none" style="mix-blend-mode: normal"><g transform="translate(-0.00951,-0.00027) scale(10.66667,10.66667)"><path d="M13.4145,15.9312c-0.2948,-0.6981 -0.7225,-1.3323 -1.2594,-1.8671c-0.5353,-0.5364 -1.1693,-0.9641 -1.8672,-1.2594c-0.0062,-0.0031 -0.0125,-0.0047 -0.0187,-0.0078c0.9734,-0.7031 1.6062,-1.8485 1.6062,-3.14065c0,-2.14063 -1.7344,-3.875 -3.87499,-3.875c-2.14063,0 -3.875,1.73437 -3.875,3.875c0,1.29215 0.63281,2.43745 1.60625,3.14215c-0.00625,0.0032 -0.0125,0.0047 -0.01875,0.0078c-0.7,0.2954 -1.32813,0.7188 -1.86719,1.2594c-0.53639,0.5353 -0.96406,1.1694 -1.25938,1.8672c-0.29012,0.6832 -0.44659,1.4157 -0.46093,2.1578c-0.00042,0.0167 0.0025,0.0333 0.0086,0.0488c0.00609,0.0155 0.01523,0.0297 0.02688,0.0416c0.01165,0.012 0.02557,0.0215 0.04095,0.0279c0.01537,0.0065 0.03188,0.0099 0.04857,0.0099h0.9375c0.06875,0 0.12343,-0.0547 0.125,-0.1219c0.03125,-1.2063 0.51562,-2.336 1.37187,-3.1922c0.88594,-0.8859 2.0625,-1.3735 3.31563,-1.3735c1.25312,0 2.42969,0.4876 3.31559,1.3735c0.8563,0.8562 1.3407,1.9859 1.3719,3.1922c0.0016,0.0687 0.0563,0.1219 0.125,0.1219h0.9375c0.0167,0 0.0332,-0.0034 0.0486,-0.0099c0.0153,-0.0064 0.0293,-0.0159 0.0409,-0.0279c0.0117,-0.0119 0.0208,-0.0261 0.0269,-0.0416c0.0061,-0.0155 0.009,-0.0321 0.0086,-0.0488c-0.0156,-0.7469 -0.1703,-1.4734 -0.4609,-2.1594zM8.00041,12.3438c-0.71719,0 -1.39219,-0.2797 -1.9,-0.7875c-0.50782,-0.5079 -0.7875,-1.1829 -0.7875,-1.90005c0,-0.71719 0.27968,-1.39219 0.7875,-1.9c0.50781,-0.50781 1.18281,-0.7875 1.9,-0.7875c0.71718,0 1.39218,0.27969 1.9,0.7875c0.50779,0.50781 0.78749,1.18281 0.78749,1.9c0,0.71715 -0.2797,1.39215 -0.78749,1.90005c-0.50782,0.5078 -1.18282,0.7875 -1.9,0.7875z"></path></g></g></svg>